<?xml version="1.0" encoding="UTF-8" standalone="no"?>
<!-- Created with Inkscape (http://www.inkscape.org/) -->

<svg
   xmlns:dc="http://purl.org/dc/elements/1.1/"
   xmlns:cc="http://creativecommons.org/ns#"
   xmlns:rdf="http://www.w3.org/1999/02/22-rdf-syntax-ns#"
   xmlns:svg="http://www.w3.org/2000/svg"
   xmlns="http://www.w3.org/2000/svg"
   xmlns:sodipodi="http://sodipodi.sourceforge.net/DTD/sodipodi-0.dtd"
   xmlns:inkscape="http://www.inkscape.org/namespaces/inkscape"
   width="210mm"
   height="297mm"
   viewBox="0 0 744.09448819 1052.3622047"
   id="svg2"
   version="1.1"
   inkscape:version="0.91 r13725"
   sodipodi:docname="マスコットとタイトル.svg">
  <defs
     id="defs4" />
  <sodipodi:namedview
     id="base"
     pagecolor="#ffffff"
     bordercolor="#666666"
     borderopacity="1.0"
     inkscape:pageopacity="0.0"
     inkscape:pageshadow="2"
     inkscape:zoom="0.98994949"
     inkscape:cx="358.55385"
     inkscape:cy="729.19522"
     inkscape:document-units="px"
     inkscape:current-layer="layer5"
     showgrid="false"
     inkscape:window-width="1920"
     inkscape:window-height="1017"
     inkscape:window-x="-8"
     inkscape:window-y="-8"
     inkscape:window-maximized="1" />
  <metadata
     id="metadata7">
    <rdf:RDF>
      <cc:Work
         rdf:about="">
        <dc:format>image/svg+xml</dc:format>
        <dc:type
           rdf:resource="http://purl.org/dc/dcmitype/StillImage" />
        <dc:title />
      </cc:Work>
    </rdf:RDF>
  </metadata>
  <g
     inkscape:groupmode="layer"
     id="layer5"
     inkscape:label="青線">
    <path
       style="opacity:1;fill:none;fill-opacity:1;stroke:#0080fa;stroke-width:7;stroke-linecap:round;stroke-linejoin:bevel;stroke-miterlimit:4;stroke-dasharray:none;stroke-dashoffset:0;stroke-opacity:1"
       d="m 358.25892,191.65896 a 43.795258,41.35968 0 0 1 -20.49101,4.83629 43.795258,41.35968 0 0 1 -16.4161,-3.06607 43.795258,41.35968 0 0 1 -32.48956,13.69209 43.795258,41.35968 0 0 1 -13.21438,-1.94143 63.259818,45.955201 0 0 0 -0.65365,6.24995 63.259818,45.955201 0 0 0 63.25935,45.95498 63.259818,45.955201 0 0 0 63.25934,-45.95498 63.259818,45.955201 0 0 0 -0.44907,-5.17086 43.795258,41.35968 0 0 1 -8.67376,0.86234 43.795258,41.35968 0 0 1 -34.13116,-15.46231 z"
       id="path4450-0-2-4-3"
       inkscape:connector-curvature="0"
       inkscape:export-xdpi="200.10001"
       inkscape:export-ydpi="200.10001" />
    <path
       style="opacity:1;fill:none;fill-opacity:1;stroke:#0080fa;stroke-width:10;stroke-linecap:round;stroke-linejoin:bevel;stroke-miterlimit:4;stroke-dasharray:none;stroke-dashoffset:0;stroke-opacity:1"
       d="m 362.96685,110.45595 c -8.50591,0.009 -16.8663,1.95305 -24.27735,5.64649 -7.24166,-3.46808 -15.34558,-5.28581 -23.58007,-5.28907 -16.38558,10e-4 -31.71242,7.16448 -40.94922,19.13868 -12.38081,2.65844 -23.12989,9.43143 -30.01758,18.91406 -13.41248,7.88772 -21.65923,21.0477 -22.11524,35.29101 -6.95622,8.92927 -10.74369,19.91926 -10.76562,31.23829 0.0108,7.7925 1.80745,15.47886 5.25195,22.46875 -1.58143,4.97669 -2.38902,10.16676 -2.39453,15.38867 0.0218,12.61385 4.71819,24.77195 13.18164,34.12501 -1.14341,4.24543 -1.73294,8.62092 -1.75391,13.01758 0.0189,23.88738 16.61813,44.56006 39.93751,49.73828 8.7338,16.99268 26.23407,27.67724 45.33984,27.68164 10.14614,-0.0153 20.05704,-3.05713 28.46484,-8.73633 8.30526,5.45832 18.02456,8.37064 27.96289,8.37891 19.10648,-0.004 36.60767,-10.68833 45.3418,-27.68164 23.3186,-5.17901 39.91683,-25.85149 39.93555,-49.73829 -0.0211,-4.39601 -0.61067,-8.77082 -1.75391,-13.01562 8.46461,-9.35327 13.16172,-21.51218 13.1836,-34.12696 -0.005,-5.22256 -0.81291,-10.41332 -2.39454,-15.39063 3.44421,-6.9893 5.24085,-14.67496 5.25196,-22.4668 -0.0228,-11.31768 -3.81023,-22.30616 -10.76563,-31.23437 -0.45432,-14.24572 -8.70208,-27.40836 -22.11718,-35.29688 -6.88764,-9.48154 -17.63589,-16.25375 -30.01563,-18.91211 -9.23719,-11.9747 -24.5649,-19.13815 -40.95117,-19.13867 z"
       id="path4136-4-5-1-4"
       inkscape:connector-curvature="0"
       sodipodi:nodetypes="ccccccccccccccccccccccccc"
       inkscape:export-xdpi="200.10001"
       inkscape:export-ydpi="200.10001" />
    <path
       style="fill:none;fill-rule:evenodd;stroke:#0080fa;stroke-width:8;stroke-linecap:round;stroke-linejoin:miter;stroke-miterlimit:4;stroke-dasharray:none;stroke-opacity:1"
       d="m 259.01584,276.167 c 0,0 -20.70813,-17.67768 -13.13198,-16.66753 7.57614,1.01016 21.2132,6.56599 21.2132,6.56599"
       id="path4553-9-1-4-3"
       inkscape:connector-curvature="0"
       inkscape:export-xdpi="200.10001"
       inkscape:export-ydpi="200.10001" />
    <path
       style="fill:none;fill-rule:evenodd;stroke:#0080fa;stroke-width:8;stroke-linecap:round;stroke-linejoin:miter;stroke-miterlimit:4;stroke-dasharray:none;stroke-opacity:1"
       d="m 419.21574,270.25018 c 0,0 20.70813,-17.67767 13.13198,-16.66752 -7.57614,1.01016 -21.2132,6.56599 -21.2132,6.56599"
       id="path4553-8-3-7-5-6"
       inkscape:connector-curvature="0"
       inkscape:export-xdpi="200.10001"
       inkscape:export-ydpi="200.10001" />
    <path
       sodipodi:type="spiral"
       style="fill:none;fill-rule:evenodd;stroke:#0080fa;stroke-width:4.33759785;stroke-linecap:butt;stroke-linejoin:miter;stroke-miterlimit:4;stroke-dasharray:none;stroke-opacity:1"
       id="path4902-4-4"
       sodipodi:cx="474.7717"
       sodipodi:cy="209.89499"
       sodipodi:expansion="4"
       sodipodi:revolution="3"
       sodipodi:radius="12.667249"
       sodipodi:argument="-21.58102"
       sodipodi:t0="0.155"
       d="m 474.77888,209.89637 c 0.0119,0.0127 -0.004,0.0323 -0.0149,0.0388 -0.0504,0.03 -0.10726,-0.0219 -0.12544,-0.0658 -0.0574,-0.13852 0.0747,-0.27201 0.1976,-0.30902 0.30899,-0.093 0.58071,0.19224 0.64293,0.47086 0.13431,0.60143 -0.41374,1.10065 -0.96315,1.19226 -1.06332,0.1773 -1.91228,-0.78769 -2.03372,-1.76929 -0.21651,-1.75 1.37186,-3.10917 3.00124,-3.25564 2.72463,-0.24493 4.79803,2.23339 4.95797,4.78814 0.25407,4.05826 -3.44873,7.0987 -7.27629,7.25228 -5.82975,0.23393 -10.14417,-5.10364 -10.26179,-10.62914 -0.0197,-0.92749 0.0664,-1.85668 0.25163,-2.76558"
       transform="matrix(1.5414378,0,0,1.6895519,-328.86858,-187.39495)"
       inkscape:export-xdpi="200.10001"
       inkscape:export-ydpi="200.10001" />
    <ellipse
       style="opacity:1;fill:#ffffff;fill-opacity:1;stroke:#0080fa;stroke-width:6;stroke-linecap:round;stroke-linejoin:bevel;stroke-miterlimit:4;stroke-dasharray:none;stroke-dashoffset:0;stroke-opacity:1"
       id="path4570-1-3-9-2"
       cx="304.13882"
       cy="226.41309"
       rx="4.6428571"
       ry="7.5"
       inkscape:export-xdpi="200.10001"
       inkscape:export-ydpi="200.10001" />
    <ellipse
       style="opacity:1;fill:#ffffff;fill-opacity:1;stroke:#0080fa;stroke-width:6;stroke-linecap:round;stroke-linejoin:bevel;stroke-miterlimit:4;stroke-dasharray:none;stroke-dashoffset:0;stroke-opacity:1"
       id="path4570-8-2-8-5-6"
       cx="373.50284"
       cy="226.41309"
       rx="4.6428571"
       ry="7.5"
       inkscape:export-xdpi="200.10001"
       inkscape:export-ydpi="200.10001" />
  </g>
  <g
     inkscape:groupmode="layer"
     id="layer1"
     inkscape:label="文字">
    <text
       xml:space="preserve"
       style="font-style:normal;font-weight:normal;font-size:40px;line-height:125%;font-family:sans-serif;letter-spacing:0px;word-spacing:0px;fill:#333333;fill-opacity:1;stroke:#f9f9f9;stroke-width:2;stroke-linecap:round;stroke-linejoin:round;stroke-opacity:1;stroke-miterlimit:4;stroke-dasharray:none;"
       x="54.55769"
       y="340.86642"
       id="text4153"
       sodipodi:linespacing="125%"
       inkscape:export-xdpi="200.10001"
       inkscape:export-ydpi="200.10001"><tspan
         sodipodi:role="line"
         id="tspan4155"
         x="54.55769"
         y="340.86642"
         style="font-style:normal;font-variant:normal;font-weight:normal;font-stretch:normal;font-size:60px;font-family:Jiyucho;-inkscape-font-specification:Jiyucho;fill:#333333;stroke:#f9f9f9;stroke-width:2;stroke-miterlimit:4;stroke-dasharray:none;stroke-linejoin:round;stroke-linecap:round;">翻訳&amp;&amp;プログラミング</tspan></text>
    <text
       xml:space="preserve"
       style="font-style:normal;font-weight:normal;font-size:40px;line-height:125%;font-family:sans-serif;letter-spacing:0px;word-spacing:0px;fill:#000000;fill-opacity:1;stroke:#f9f9f9;stroke-width:2;stroke-linecap:round;stroke-linejoin:round;stroke-miterlimit:4;stroke-dasharray:none;stroke-opacity:1"
       x="202.06433"
       y="391.37408"
       id="text4157"
       sodipodi:linespacing="125%"
       inkscape:export-xdpi="200.10001"
       inkscape:export-ydpi="200.10001"><tspan
         sodipodi:role="line"
         x="202.06433"
         y="391.37408"
         id="tspan4161"
         style="font-style:normal;font-variant:normal;font-weight:normal;font-stretch:normal;font-family:Jiyucho;-inkscape-font-specification:Jiyucho;fill:#333333;stroke:#f9f9f9;stroke-width:2;stroke-linecap:round;stroke-linejoin:round;stroke-miterlimit:4;stroke-dasharray:none">@ひつじ翻訳工房</tspan></text>
  </g>
</svg>
