<?xml version="1.0" encoding="UTF-8" standalone="no"?>
<!-- Created with Inkscape (http://www.inkscape.org/) -->

<svg
   xmlns:dc="http://purl.org/dc/elements/1.1/"
   xmlns:cc="http://creativecommons.org/ns#"
   xmlns:rdf="http://www.w3.org/1999/02/22-rdf-syntax-ns#"
   xmlns:svg="http://www.w3.org/2000/svg"
   xmlns="http://www.w3.org/2000/svg"
   xmlns:sodipodi="http://sodipodi.sourceforge.net/DTD/sodipodi-0.dtd"
   xmlns:inkscape="http://www.inkscape.org/namespaces/inkscape"
   width="210mm"
   height="297mm"
   viewBox="0 0 744.09448819 1052.3622047"
   id="svg4164"
   version="1.1"
   inkscape:version="0.91 r13725"
   inkscape:export-filename="D:\Codes\repla-sheep\img\Repla80.png"
   inkscape:export-xdpi="26.950928"
   inkscape:export-ydpi="26.950928"
   sodipodi:docname="repla.svg">
  <defs
     id="defs4166" />
  <sodipodi:namedview
     id="base"
     pagecolor="#ffffff"
     bordercolor="#666666"
     borderopacity="1.0"
     inkscape:pageopacity="0.0"
     inkscape:pageshadow="2"
     inkscape:zoom="1.4"
     inkscape:cx="243.95581"
     inkscape:cy="685.19212"
     inkscape:document-units="px"
     inkscape:current-layer="layer1"
     showgrid="false"
     inkscape:window-width="1920"
     inkscape:window-height="1017"
     inkscape:window-x="-8"
     inkscape:window-y="-8"
     inkscape:window-maximized="1" />
  <metadata
     id="metadata4169">
    <rdf:RDF>
      <cc:Work
         rdf:about="">
        <dc:format>image/svg+xml</dc:format>
        <dc:type
           rdf:resource="http://purl.org/dc/dcmitype/StillImage" />
        <dc:title />
      </cc:Work>
    </rdf:RDF>
  </metadata>
  <g
     inkscape:label="レイヤー 1"
     inkscape:groupmode="layer"
     id="layer1">
    <path
       style="opacity:1;fill:#00aaff;fill-opacity:1;stroke:none;stroke-width:10.207;stroke-linecap:round;stroke-linejoin:bevel;stroke-miterlimit:4;stroke-dasharray:none;stroke-dashoffset:0;stroke-opacity:1"
       d="m 441.93314,241.64323 c -8.86885,0.009 -17.58598,1.95154 -25.31326,5.64212 -7.55066,-3.46539 -16.00038,-5.28171 -24.58623,-5.28497 -17.08476,0.001 -33.0656,7.15892 -42.69653,19.12384 -12.9091,2.65639 -24.11684,9.42413 -31.29843,18.89941 -13.9848,7.8816 -22.58343,21.03139 -23.0589,35.26367 -7.25304,8.92234 -11.20212,19.90382 -11.22499,31.21408 0.0112,7.78646 1.88458,15.46686 5.47605,22.45134 -1.64891,4.97283 -2.49096,10.15888 -2.4967,15.37675 0.0227,12.60407 4.91951,24.75275 13.7441,34.09856 -1.1922,4.24214 -1.80689,8.61424 -1.82875,13.00749 0.0197,23.86887 17.32722,44.52554 41.64164,49.69974 9.10647,16.97952 27.35348,27.6558 47.27451,27.6602 10.57907,-0.0153 20.91287,-3.05476 29.67943,-8.72956 8.65964,5.45409 18.79367,8.36415 29.15606,8.37241 19.92176,-0.004 38.16972,-10.68005 47.27654,-27.66018 24.3136,-5.17501 41.62008,-25.83146 41.6396,-49.69975 -0.0221,-4.39261 -0.63673,-8.76403 -1.82876,-13.00554 8.8258,-9.34602 13.72333,-21.49551 13.74615,-34.10052 -0.005,-5.21851 -0.84759,-10.40525 -2.49671,-15.3787 3.59117,-6.98388 5.46448,-14.66359 5.47606,-22.4494 -0.0238,-11.30891 -3.97281,-22.28887 -11.22501,-31.21016 -0.4737,-14.23468 -9.07339,-27.38712 -23.06092,-35.26953 -7.18153,-9.4742 -18.38841,-16.24116 -31.29639,-18.89746 -9.63134,-11.96542 -25.61309,-19.12332 -42.69856,-19.12384 z"
       id="path4136-4-5-1-4"
       inkscape:connector-curvature="0"
       sodipodi:nodetypes="ccccccccccccccccccccccccc"
       inkscape:export-xdpi="97.589996"
       inkscape:export-ydpi="97.589996" />
    <text
       xml:space="preserve"
       style="font-style:normal;font-weight:normal;font-size:156.042099px;line-height:125%;font-family:sans-serif;letter-spacing:0px;word-spacing:0px;fill:#000000;fill-opacity:1;stroke:#ffffff;stroke-width:4.99999998;stroke-linecap:butt;stroke-linejoin:miter;stroke-opacity:1;stroke-miterlimit:4;stroke-dasharray:none"
       x="305.89688"
       y="427.98187"
       id="text4147"
       sodipodi:linespacing="125%"
       transform="scale(0.99645363,1.003559)"><tspan
         sodipodi:role="line"
         id="tspan4149"
         x="305.89688"
         y="427.98187">A</tspan><tspan
         sodipodi:role="line"
         x="305.89688"
         y="623.03448"
         id="tspan4151" /></text>
    <text
       xml:space="preserve"
       style="font-style:normal;font-weight:normal;font-size:145.26242065px;line-height:125%;font-family:sans-serif;letter-spacing:0px;word-spacing:0px;fill:#000000;fill-opacity:1;stroke:#ffffff;stroke-width:4.65459108;stroke-linecap:butt;stroke-linejoin:miter;stroke-miterlimit:4;stroke-dasharray:none;stroke-opacity:1"
       x="403.72128"
       y="414.03204"
       id="text4147-1"
       sodipodi:linespacing="125%"
       transform="scale(0.9799365,1.0204743)"
       inkscape:transform-center-x="75.854675"
       inkscape:transform-center-y="1.352341"><tspan
         sodipodi:role="line"
         id="tspan4149-0"
         x="403.72128"
         y="414.03204"
         style="stroke-width:4.65459108">あ</tspan><tspan
         sodipodi:role="line"
         x="403.72128"
         y="595.61005"
         id="tspan4151-1"
         style="stroke-width:4.65459108" /></text>
  </g>
</svg>
